<?xml version="1.0" standalone="no"?>
<!DOCTYPE svg PUBLIC "-//W3C//DTD SVG 20010904//EN"
 "http://www.w3.org/TR/2001/REC-SVG-20010904/DTD/svg10.dtd">
<svg version="1.0" xmlns="http://www.w3.org/2000/svg"
 width="512.000000pt" height="512.000000pt" viewBox="0 0 512.000000 512.000000"
 preserveAspectRatio="xMidYMid meet">

<g transform="translate(0.000000,512.000000) scale(0.100000,-0.100000)"
fill="#000000" stroke="none">
<path d="M3066 4624 c-193 -42 -352 -169 -440 -353 -18 -38 -36 -79 -39 -91
-5 -20 -6 -20 -976 -20 l-971 0 0 -160 0 -160 971 0 c970 0 971 0 976 -20 3
-12 21 -53 39 -91 90 -187 248 -312 447 -353 96 -20 158 -20 254 0 198 41 357
166 447 353 18 38 36 79 39 91 5 20 11 20 336 20 l331 0 0 160 0 160 -331 0
c-325 0 -331 0 -336 20 -13 49 -77 166 -120 222 -145 184 -393 272 -627 222z
m270 -334 c62 -30 123 -92 155 -155 35 -72 35 -198 0 -270 -32 -63 -92 -124
-156 -155 -72 -35 -198 -35 -270 0 -178 87 -238 303 -130 467 38 57 105 109
169 129 61 20 172 12 232 -16z"/>
<path d="M1786 3184 c-193 -42 -352 -169 -440 -353 -18 -38 -36 -79 -39 -91
-5 -20 -11 -20 -336 -20 l-331 0 0 -160 0 -160 331 0 c325 0 331 0 336 -20 3
-12 21 -53 39 -91 90 -187 248 -312 447 -353 96 -20 158 -20 254 0 198 41 357
166 447 353 18 38 36 79 39 91 5 20 6 20 976 20 l971 0 0 160 0 160 -971 0
c-970 0 -971 0 -976 20 -13 49 -77 166 -120 222 -145 184 -393 272 -627 222z
m270 -334 c62 -30 123 -92 155 -155 35 -72 35 -198 0 -270 -32 -63 -92 -124
-156 -155 -72 -35 -198 -35 -270 0 -178 87 -238 303 -130 467 38 57 105 109
169 129 61 20 172 12 232 -16z"/>
<path d="M3066 1744 c-193 -42 -352 -169 -440 -353 -18 -38 -36 -79 -39 -91
-5 -20 -6 -20 -976 -20 l-971 0 0 -160 0 -160 971 0 c970 0 971 0 976 -20 3
-12 21 -53 39 -91 90 -187 248 -312 447 -353 96 -20 158 -20 254 0 198 41 357
166 447 353 18 38 36 79 39 91 5 20 11 20 336 20 l331 0 0 160 0 160 -331 0
c-325 0 -331 0 -336 20 -13 49 -77 166 -120 222 -145 184 -393 272 -627 222z
m270 -334 c62 -30 123 -92 155 -155 35 -72 35 -198 0 -270 -32 -63 -92 -124
-156 -155 -72 -35 -198 -35 -270 0 -178 87 -238 303 -130 467 38 57 105 109
169 129 61 20 172 12 232 -16z"/>
</g>
</svg>
